<svg width="44" height="44" viewBox="0 0 44 44" fill="none" xmlns="http://www.w3.org/2000/svg">
<path d="M21.9993 3.66699C11.8793 3.66699 3.66602 11.8803 3.66602 22.0003C3.66602 32.1203 11.8793 40.3337 21.9993 40.3337C32.1194 40.3337 40.3327 32.1203 40.3327 22.0003C40.3327 11.8803 32.1194 3.66699 21.9993 3.66699ZM30.506 16.1337C30.231 19.0303 29.0394 26.0703 28.4343 29.3153C28.1777 30.6903 27.6643 31.1487 27.1877 31.2037C26.1243 31.2953 25.3177 30.507 24.291 29.8287C22.6777 28.7653 21.761 28.1053 20.2027 27.0787C18.3877 25.887 19.561 25.227 20.606 24.1637C20.881 23.8887 25.5744 19.617 25.666 19.232C25.6787 19.1737 25.6771 19.1131 25.6611 19.0556C25.6451 18.9981 25.6153 18.9454 25.5743 18.902C25.4643 18.8103 25.3177 18.847 25.1893 18.8653C25.0243 18.902 22.4577 20.607 17.4527 23.9803C16.7193 24.4753 16.0593 24.732 15.4727 24.7137C14.8127 24.6953 13.566 24.347 12.631 24.0353C11.476 23.6687 10.5777 23.467 10.651 22.8253C10.6877 22.4953 11.146 22.1653 12.0077 21.817C17.361 19.4887 20.9177 17.9487 22.696 17.2153C27.7927 15.0887 28.8377 14.722 29.5344 14.722C29.681 14.722 30.0294 14.7587 30.2493 14.942C30.4327 15.0887 30.4877 15.2903 30.506 15.437C30.4877 15.547 30.5243 15.877 30.506 16.1337Z" fill="#8D33FF"/>
</svg>
