<svg width="44" height="44" viewBox="0 0 44 44" fill="none" xmlns="http://www.w3.org/2000/svg">
<path d="M22.0013 3.66699C32.1268 3.66699 40.3347 11.8748 40.3347 22.0003C40.3347 32.1258 32.1268 40.3337 22.0013 40.3337C18.7614 40.3389 15.5785 39.4815 12.7797 37.8495L3.67533 40.3337L6.15399 31.2257C4.52067 28.4259 3.66258 25.2417 3.66799 22.0003C3.66799 11.8748 11.8758 3.66699 22.0013 3.66699ZM15.7533 13.3837L15.3867 13.3983C15.1493 13.4128 14.9173 13.4751 14.7047 13.5817C14.5058 13.6943 14.3242 13.8351 14.1657 13.9997C13.9457 14.2068 13.821 14.3865 13.6872 14.5607C13.0091 15.4423 12.6439 16.5247 12.6495 17.637C12.6532 18.5353 12.8878 19.4098 13.2545 20.2275C14.0043 21.8812 15.2382 23.632 16.8662 25.2545C17.2585 25.645 17.6435 26.0373 18.0578 26.4022C20.0807 28.1832 22.4913 29.4676 25.0978 30.1532L26.1392 30.3127C26.4783 30.331 26.8175 30.3053 27.1585 30.2888C27.6924 30.2613 28.2138 30.1167 28.6857 29.8653C28.9257 29.7417 29.16 29.6071 29.3878 29.462C29.3878 29.462 29.4667 29.4107 29.617 29.297C29.8645 29.1137 30.0167 28.9835 30.222 28.769C30.3742 28.6113 30.5062 28.4262 30.607 28.2153C30.75 27.9165 30.893 27.3463 30.9517 26.8715C30.9957 26.5085 30.9828 26.3105 30.9773 26.1877C30.97 25.9915 30.8068 25.788 30.629 25.7018L29.562 25.2233C29.562 25.2233 27.967 24.5285 26.9917 24.0848C26.8896 24.0403 26.7802 24.0148 26.669 24.0097C26.5436 23.9968 26.4168 24.0109 26.2973 24.0511C26.1778 24.0912 26.0682 24.1565 25.976 24.2425C25.9668 24.2388 25.844 24.3433 24.5185 25.9493C24.4424 26.0516 24.3376 26.1288 24.2175 26.1713C24.0973 26.2137 23.9672 26.2194 23.8438 26.1877C23.7244 26.1556 23.6074 26.1152 23.4937 26.0667C23.2663 25.9713 23.1875 25.9347 23.0317 25.8687C21.9795 25.4095 21.0053 24.7891 20.1442 24.0298C19.9132 23.8282 19.6987 23.6082 19.4787 23.3955C18.7574 22.7047 18.1288 21.9233 17.6087 21.0708L17.5005 20.8967C17.4228 20.7796 17.36 20.6534 17.3135 20.5208C17.2438 20.2513 17.4253 20.035 17.4253 20.035C17.4253 20.035 17.8708 19.5473 18.078 19.2833C18.2797 19.0267 18.4502 18.7773 18.5602 18.5995C18.7765 18.2512 18.8443 17.8937 18.7307 17.6168C18.2173 16.3628 17.6857 15.1143 17.1393 13.875C17.0312 13.6293 16.7103 13.4533 16.4188 13.4185C16.3198 13.4075 16.2208 13.3965 16.1218 13.3892C15.8756 13.3769 15.6289 13.3794 15.383 13.3965L15.7515 13.3818L15.7533 13.3837Z" fill="#8D33FF"/>
</svg>
