<svg width="32" height="32" viewBox="0 0 32 32" fill="none" xmlns="http://www.w3.org/2000/svg">
<circle cx="16" cy="16" r="16" fill="#F7F7F7"/>
<path d="M10.6668 21.3333C10.3002 21.3333 9.98616 21.2026 9.72483 20.9413C9.4635 20.68 9.33305 20.3662 9.3335 20V12C9.3335 11.6333 9.46416 11.3193 9.7255 11.058C9.98683 10.7966 10.3006 10.6662 10.6668 10.6666H21.3335C21.7002 10.6666 22.0142 10.7973 22.2755 11.0586C22.5368 11.32 22.6673 11.6337 22.6668 12V20C22.6668 20.3666 22.5362 20.6806 22.2748 20.942C22.0135 21.2033 21.6997 21.3337 21.3335 21.3333H10.6668ZM16.0002 16.6666L21.3335 13.3333V12L16.0002 15.3333L10.6668 12V13.3333L16.0002 16.6666Z" fill="#120E0E"/>
</svg>
