<svg width="128" height="19" viewBox="0 0 128 19" fill="none" xmlns="http://www.w3.org/2000/svg">
<path d="M8.208 6V8.496H5.232V14.256C5.232 14.752 5.344 15.112 5.568 15.336C5.792 15.544 6.12 15.664 6.552 15.696C7 15.712 7.552 15.704 8.208 15.672V18C6.224 18.24 4.8 18.072 3.936 17.496C3.072 16.904 2.64 15.824 2.64 14.256V8.496H0.432V6H2.64V3.408L5.232 2.64V6H8.208ZM21.6587 13.104H12.1067C12.2987 14 12.7307 14.696 13.4027 15.192C14.0907 15.688 14.9387 15.936 15.9467 15.936C17.3067 15.936 18.3387 15.44 19.0427 14.448L21.1787 15.696C20.0107 17.44 18.2587 18.312 15.9227 18.312C13.9867 18.312 12.4107 17.72 11.1947 16.536C9.99469 15.336 9.39469 13.824 9.39469 12C9.39469 10.224 9.98669 8.728 11.1707 7.512C12.3387 6.296 13.8587 5.688 15.7307 5.688C17.4747 5.688 18.9147 6.304 20.0507 7.536C21.1867 8.768 21.7547 10.264 21.7547 12.024C21.7547 12.344 21.7227 12.704 21.6587 13.104ZM12.0827 10.992H19.1387C18.9627 10.048 18.5627 9.32 17.9387 8.808C17.3307 8.296 16.5867 8.04 15.7067 8.04C14.7467 8.04 13.9467 8.304 13.3067 8.832C12.6667 9.36 12.2587 10.08 12.0827 10.992ZM26.6274 18H24.0354V0.48H26.6274V18ZM32.229 18H29.637V0.48H32.229V18Z" fill="#8D33FF"/>
<path d="M48.3426 5.688C49.7026 5.688 50.7986 6.128 51.6306 7.008C52.4626 7.888 52.8786 9.072 52.8786 10.56V18H50.2866V10.728C50.2866 9.912 50.0786 9.272 49.6626 8.808C49.2466 8.344 48.6786 8.112 47.9586 8.112C47.1426 8.112 46.5026 8.384 46.0386 8.928C45.5746 9.456 45.3426 10.24 45.3426 11.28V18H42.7506V10.728C42.7506 9.896 42.5506 9.256 42.1506 8.808C41.7666 8.344 41.2146 8.112 40.4946 8.112C39.6946 8.112 39.0466 8.384 38.5506 8.928C38.0706 9.472 37.8306 10.256 37.8306 11.28V18H35.2386V6H37.8306V7.44C38.5986 6.272 39.7426 5.688 41.2626 5.688C42.7986 5.688 43.9346 6.32 44.6706 7.584C45.4546 6.32 46.6786 5.688 48.3426 5.688ZM67.2446 13.104H57.6926C57.8846 14 58.3166 14.696 58.9886 15.192C59.6766 15.688 60.5246 15.936 61.5326 15.936C62.8926 15.936 63.9246 15.44 64.6286 14.448L66.7646 15.696C65.5966 17.44 63.8446 18.312 61.5086 18.312C59.5726 18.312 57.9966 17.72 56.7806 16.536C55.5806 15.336 54.9806 13.824 54.9806 12C54.9806 10.224 55.5726 8.728 56.7566 7.512C57.9246 6.296 59.4446 5.688 61.3166 5.688C63.0606 5.688 64.5006 6.304 65.6366 7.536C66.7726 8.768 67.3406 10.264 67.3406 12.024C67.3406 12.344 67.3086 12.704 67.2446 13.104ZM57.6686 10.992H64.7246C64.5486 10.048 64.1486 9.32 63.5246 8.808C62.9166 8.296 62.1726 8.04 61.2926 8.04C60.3326 8.04 59.5326 8.304 58.8926 8.832C58.2526 9.36 57.8446 10.08 57.6686 10.992ZM75.9334 5.688C77.3254 5.688 78.4374 6.136 79.2694 7.032C80.1174 7.912 80.5414 9.112 80.5414 10.632V18H77.9494V10.896C77.9494 10 77.7094 9.312 77.2294 8.832C76.7494 8.352 76.0934 8.112 75.2614 8.112C74.3174 8.112 73.5734 8.408 73.0294 9C72.4854 9.576 72.2134 10.432 72.2134 11.568V18H69.6214V6H72.2134V7.536C73.0134 6.304 74.2534 5.688 75.9334 5.688ZM92.8363 7.704V6H95.4283V18H92.8363V16.272C91.8603 17.632 90.4603 18.312 88.6363 18.312C86.9883 18.312 85.5803 17.704 84.4123 16.488C83.2443 15.272 82.6603 13.776 82.6603 12C82.6603 10.224 83.2443 8.728 84.4123 7.512C85.5803 6.296 86.9883 5.688 88.6363 5.688C90.4603 5.688 91.8603 6.36 92.8363 7.704ZM86.3323 14.76C87.0523 15.48 87.9563 15.84 89.0443 15.84C90.1323 15.84 91.0363 15.48 91.7563 14.76C92.4763 14.024 92.8363 13.104 92.8363 12C92.8363 10.896 92.4763 9.984 91.7563 9.264C91.0363 8.528 90.1323 8.16 89.0443 8.16C87.9563 8.16 87.0523 8.528 86.3323 9.264C85.6123 9.984 85.2523 10.896 85.2523 12C85.2523 13.088 85.6123 14.008 86.3323 14.76ZM105.146 6V8.496H102.17V14.256C102.17 14.752 102.282 15.112 102.506 15.336C102.73 15.544 103.058 15.664 103.49 15.696C103.938 15.712 104.49 15.704 105.146 15.672V18C103.162 18.24 101.738 18.072 100.874 17.496C100.01 16.904 99.5775 15.824 99.5775 14.256V8.496H97.3695V6H99.5775V3.408L102.17 2.64V6H105.146ZM117.156 16.488C115.94 17.704 114.444 18.312 112.668 18.312C110.892 18.312 109.396 17.704 108.18 16.488C106.948 15.256 106.332 13.76 106.332 12C106.332 10.24 106.948 8.744 108.18 7.512C109.396 6.296 110.892 5.688 112.668 5.688C114.444 5.688 115.94 6.296 117.156 7.512C118.388 8.744 119.004 10.24 119.004 12C119.004 13.76 118.388 15.256 117.156 16.488ZM108.924 12C108.924 13.088 109.284 13.992 110.004 14.712C110.724 15.432 111.612 15.792 112.668 15.792C113.724 15.792 114.612 15.432 115.332 14.712C116.052 13.992 116.412 13.088 116.412 12C116.412 10.912 116.052 10.008 115.332 9.288C114.612 8.568 113.724 8.208 112.668 8.208C111.612 8.208 110.724 8.568 110.004 9.288C109.284 10.008 108.924 10.912 108.924 12ZM123.94 6V8.016C124.596 6.528 125.828 5.784 127.636 5.784V8.592C126.66 8.528 125.796 8.768 125.044 9.312C124.308 9.84 123.94 10.72 123.94 11.952V18H121.348V6H123.94Z" fill="#121116"/>
</svg>
