<?xml version="1.0" standalone="no"?>
<!DOCTYPE svg PUBLIC "-//W3C//DTD SVG 20010904//EN"
 "http://www.w3.org/TR/2001/REC-SVG-20010904/DTD/svg10.dtd">
<svg version="1.0" xmlns="http://www.w3.org/2000/svg"
 width="840.000000pt" height="593.000000pt" viewBox="0 0 840.000000 593.000000"
 preserveAspectRatio="xMidYMid meet">

<g transform="translate(0.000000,593.000000) scale(0.100000,-0.100000)"
fill="#000000" stroke="none">
<path d="M3988 5205 c-709 -135 -1047 -957 -637 -1550 112 -163 304 -310 482
-370 l87 -30 0 -1222 0 -1222 26 -20 c15 -12 35 -21 45 -21 18 0 19 32 19
1063 0 585 3 1138 6 1228 l7 165 111 -1 c61 0 146 4 189 8 l77 9 0 -1216 c0
-804 3 -1216 10 -1216 7 0 10 415 10 1224 l0 1224 47 11 c70 18 180 71 267
130 345 233 506 662 402 1072 -45 178 -128 323 -260 455 -132 132 -280 217
-464 265 -102 27 -317 34 -424 14z m-81 -360 c40 -12 63 -28 103 -72 50 -55
52 -59 47 -103 -6 -51 -47 -133 -80 -161 -38 -32 -105 -59 -144 -59 -71 1
-153 53 -188 120 -24 47 -17 145 14 188 33 47 83 82 132 91 62 12 60 13 116
-4z"/>
</g>
</svg>
