<?xml version="1.0" standalone="no"?>
<!DOCTYPE svg PUBLIC "-//W3C//DTD SVG 20010904//EN"
 "http://www.w3.org/TR/2001/REC-SVG-20010904/DTD/svg10.dtd">
<svg version="1.0" xmlns="http://www.w3.org/2000/svg"
 width="920.000000pt" height="600.000000pt" viewBox="0 0 920.000000 600.000000"
 preserveAspectRatio="xMidYMid meet">

<g transform="translate(0.000000,600.000000) scale(0.100000,-0.100000)"
fill="#000000" stroke="none">
<path d="M5120 5618 c-94 -48 -149 -163 -157 -328 -6 -132 12 -226 66 -335 50
-102 97 -156 163 -189 132 -66 256 5 310 177 29 92 31 258 4 357 -40 148 -127
273 -221 316 -63 30 -109 30 -165 2z"/>
<path d="M5790 5448 c-73 -50 -110 -141 -110 -275 0 -178 89 -323 198 -325
107 -1 182 119 182 292 0 102 -19 177 -62 240 -40 61 -72 82 -127 88 -36 3
-53 -1 -81 -20z"/>
<path d="M6276 5259 c-54 -47 -79 -124 -74 -230 7 -148 72 -244 165 -244 48 0
82 26 116 90 19 34 22 57 22 145 0 97 -2 110 -30 165 -52 104 -131 134 -199
74z"/>
<path d="M6625 5008 c-42 -33 -65 -92 -65 -171 0 -108 40 -177 103 -177 43 0
72 22 98 72 80 157 -23 365 -136 276z"/>
<path d="M3913 4899 c-57 -28 -136 -116 -172 -192 -48 -101 -65 -180 -65 -302
-1 -182 52 -309 153 -362 258 -136 521 386 365 726 -60 132 -172 184 -281 130z"/>
<path d="M3263 4729 c-80 -51 -128 -180 -121 -328 5 -116 31 -183 90 -237 38
-34 44 -36 95 -32 46 4 60 10 93 43 21 20 51 65 67 99 26 56 28 70 28 181 0
105 -3 127 -24 172 -13 29 -41 69 -62 88 -33 30 -46 35 -87 35 -30 0 -58 -8
-79 -21z"/>
<path d="M6861 4734 c-49 -35 -77 -151 -51 -218 26 -69 91 -87 133 -36 59 69
51 226 -13 260 -26 14 -42 13 -69 -6z"/>
<path d="M2789 4548 c-106 -70 -133 -323 -48 -433 51 -64 121 -69 179 -12 49
48 72 109 77 207 4 70 1 95 -17 142 -40 106 -117 145 -191 96z"/>
<path d="M5686 4509 c-259 -25 -469 -132 -535 -273 -31 -68 -38 -171 -17 -261
33 -140 123 -259 331 -440 186 -162 252 -235 302 -331 50 -96 73 -180 80 -293
10 -174 -46 -323 -188 -496 -332 -404 -425 -746 -282 -1035 68 -139 179 -223
358 -271 62 -17 111 -22 220 -23 123 -1 148 2 208 23 138 47 240 153 295 306
38 102 49 171 62 379 19 292 43 389 181 713 157 370 236 603 286 842 34 163
39 406 9 511 -42 152 -128 270 -281 383 -198 147 -463 241 -756 267 -127 11
-146 11 -273 -1z"/>
<path d="M2456 4280 c-46 -56 -57 -138 -31 -228 39 -131 153 -151 201 -36 19
45 18 156 -2 202 -39 93 -117 122 -168 62z"/>
<path d="M2267 4019 c-40 -24 -62 -106 -46 -180 26 -120 123 -149 163 -49 21
53 20 115 -3 166 -29 63 -72 87 -114 63z"/>
<path d="M3205 3789 c-325 -34 -622 -161 -822 -353 -93 -88 -138 -159 -172
-269 -35 -115 -36 -348 -3 -515 47 -236 133 -492 284 -847 50 -115 101 -243
114 -283 38 -116 63 -270 74 -450 15 -247 34 -334 98 -457 108 -206 315 -288
609 -240 277 45 436 187 489 436 54 251 -53 533 -337 889 -148 185 -183 275
-183 460 0 132 16 206 70 314 52 102 110 170 251 292 240 206 336 321 379 450
28 85 26 232 -3 296 -92 202 -450 318 -848 277z"/>
</g>
</svg>
