<svg width="32" height="32" viewBox="0 0 32 32" fill="none" xmlns="http://www.w3.org/2000/svg">
<circle cx="16" cy="16" r="16" fill="#F7F7F7"/>
<path d="M16.0002 9.33337C12.3202 9.33337 9.3335 12.32 9.3335 16C9.3335 19.68 12.3202 22.6667 16.0002 22.6667C19.6802 22.6667 22.6668 19.68 22.6668 16C22.6668 12.32 19.6802 9.33337 16.0002 9.33337ZM19.0935 13.8667C18.9935 14.92 18.5602 17.48 18.3402 18.66C18.2468 19.16 18.0602 19.3267 17.8868 19.3467C17.5002 19.38 17.2068 19.0934 16.8335 18.8467C16.2468 18.46 15.9135 18.22 15.3468 17.8467C14.6868 17.4134 15.1135 17.1734 15.4935 16.7867C15.5935 16.6867 17.3002 15.1334 17.3335 14.9934C17.3381 14.9722 17.3375 14.9502 17.3317 14.9292C17.3259 14.9083 17.3151 14.8892 17.3002 14.8734C17.2602 14.84 17.2068 14.8534 17.1602 14.86C17.1002 14.8734 16.1668 15.4934 14.3468 16.72C14.0802 16.9 13.8402 16.9934 13.6268 16.9867C13.3868 16.98 12.9335 16.8534 12.5935 16.74C12.1735 16.6067 11.8468 16.5334 11.8735 16.3C11.8868 16.18 12.0535 16.06 12.3668 15.9334C14.3135 15.0867 15.6068 14.5267 16.2535 14.26C18.1068 13.4867 18.4868 13.3534 18.7402 13.3534C18.7935 13.3534 18.9202 13.3667 19.0002 13.4334C19.0668 13.4867 19.0868 13.56 19.0935 13.6134C19.0868 13.6534 19.1002 13.7734 19.0935 13.8667Z" fill="#120E0E"/>
</svg>
