<svg width="32" height="32" viewBox="0 0 32 32" fill="none" xmlns="http://www.w3.org/2000/svg">
<circle cx="16" cy="16" r="16" fill="#F7F7F7"/>
<path d="M16.0007 9.33337C19.6827 9.33337 22.6673 12.318 22.6673 16C22.6673 19.682 19.6827 22.6667 16.0007 22.6667C14.8225 22.6686 13.6651 22.3568 12.6473 21.7634L9.33666 22.6667L10.238 19.3547C9.64406 18.3366 9.33203 17.1787 9.33399 16C9.33399 12.318 12.3187 9.33337 16.0007 9.33337ZM13.7287 12.8667L13.5953 12.872C13.509 12.8773 13.4246 12.9 13.3473 12.9387C13.275 12.9797 13.209 13.0309 13.1513 13.0907C13.0713 13.166 13.026 13.2314 12.9773 13.2947C12.7307 13.6153 12.598 14.0089 12.6 14.4134C12.6013 14.74 12.6867 15.058 12.82 15.3554C13.0927 15.9567 13.5413 16.5934 14.1333 17.1834C14.276 17.3254 14.416 17.468 14.5667 17.6007C15.3023 18.2484 16.1788 18.7154 17.1267 18.9647L17.5053 19.0227C17.6287 19.0294 17.752 19.02 17.876 19.014C18.0702 19.004 18.2597 18.9514 18.4313 18.86C18.5186 18.8151 18.6038 18.7661 18.6867 18.7134C18.6867 18.7134 18.7153 18.6947 18.77 18.6534C18.86 18.5867 18.9153 18.5394 18.99 18.4614C19.0453 18.404 19.0933 18.3367 19.13 18.26C19.182 18.1514 19.234 17.944 19.2553 17.7714C19.2713 17.6394 19.2667 17.5674 19.2647 17.5227C19.262 17.4514 19.2027 17.3774 19.138 17.346L18.75 17.172C18.75 17.172 18.17 16.9194 17.8153 16.758C17.7782 16.7418 17.7384 16.7326 17.698 16.7307C17.6524 16.726 17.6063 16.7312 17.5628 16.7458C17.5194 16.7604 17.4795 16.7841 17.446 16.8154C17.4427 16.814 17.398 16.852 16.916 17.436C16.8883 17.4732 16.8502 17.5013 16.8065 17.5167C16.7628 17.5322 16.7155 17.5343 16.6707 17.5227C16.6272 17.5111 16.5847 17.4964 16.5433 17.4787C16.4607 17.444 16.432 17.4307 16.3753 17.4067C15.9927 17.2397 15.6385 17.0141 15.3253 16.738C15.2413 16.6647 15.1633 16.5847 15.0833 16.5074C14.8211 16.2562 14.5925 15.972 14.4033 15.662L14.364 15.5987C14.3357 15.5562 14.3129 15.5102 14.296 15.462C14.2707 15.364 14.3367 15.2854 14.3367 15.2854C14.3367 15.2854 14.4987 15.108 14.574 15.012C14.6473 14.9187 14.7093 14.828 14.7493 14.7634C14.828 14.6367 14.8527 14.5067 14.8113 14.406C14.6247 13.95 14.4313 13.496 14.2327 13.0454C14.1933 12.956 14.0767 12.892 13.9707 12.8794C13.9347 12.8754 13.8987 12.8714 13.8627 12.8687C13.7731 12.8643 13.6834 12.8652 13.594 12.8714L13.728 12.866L13.7287 12.8667Z" fill="#151618"/>
</svg>
